<svg width="16" height="16" viewBox="0 0 16 16" fill="none" xmlns="http://www.w3.org/2000/svg">
<path fill-rule="evenodd" clip-rule="evenodd" d="M8 6.46364L1.85455 0.318191C1.4303 -0.106064 0.742446 -0.106064 0.318191 0.318191C-0.106064 0.742446 -0.106064 1.4303 0.318191 1.85455L6.46364 8L0.318191 14.1454C-0.106064 14.5697 -0.106064 15.2576 0.318191 15.6818C0.742446 16.1061 1.4303 16.1061 1.85455 15.6818L8 9.53636L14.1454 15.6818C14.5697 16.1061 15.2576 16.1061 15.6818 15.6818C16.1061 15.2576 16.1061 14.5697 15.6818 14.1454L9.53636 8L15.6818 1.85455C16.1061 1.4303 16.1061 0.742446 15.6818 0.318191C15.2576 -0.106064 14.5697 -0.106064 14.1454 0.318191L8 6.46364Z" fill="url(#paint0_linear)"/>
<defs>
<linearGradient id="paint0_linear" x1="8" y1="-8" x2="-8" y2="8" gradientUnits="userSpaceOnUse">
<stop stop-color="#894AC9"/>
<stop offset="1" stop-color="#4D46B1"/>
</linearGradient>
</defs>
</svg>
